<svg width="1024" height="1024" viewBox="0 0 1024 1024" fill="none" xmlns="http://www.w3.org/2000/svg">
<rect width="1024" height="1024" fill="#0F81C0"/>
<g clip-path="url(#clip0_2001_34)">
<path d="M589.798 389.455C589.816 388.287 589.835 387.119 589.835 385.951C589.835 308.654 527.196 246 449.917 246C414.818 246 382.757 258.92 358.183 280.274C328.662 305.929 310 343.762 310 385.951V575.951C310 576.433 310 576.897 310.019 577.379C310.352 626.779 328.402 671.971 358.183 706.894C361.408 710.675 364.762 714.327 368.265 717.867C404.847 754.996 455.737 778 512 778C623.563 778 714 687.541 714 575.951C714 491.943 662.74 419.91 589.798 389.455ZM512 729.805C430.125 729.805 363.187 665.817 358.461 585.108C358.276 582.087 358.183 579.028 358.183 575.951V385.951C358.183 335.272 399.251 294.195 449.917 294.195C497.23 294.195 536.166 330.008 541.114 376.016C541.466 379.278 541.651 382.596 541.651 385.951C541.651 399.372 538.76 412.125 533.59 423.618C549.991 425.916 565.576 430.81 579.883 437.854C630.791 462.934 665.817 515.355 665.817 575.951C665.817 660.923 596.951 729.805 512 729.805Z" fill="white"/>
<path d="M358.184 499.098C336.594 520.897 319.933 547.59 310.019 577.378C310.352 626.778 328.402 671.971 358.184 706.894C361.408 710.675 364.762 714.327 368.265 717.867C355.292 695.308 347.88 669.153 347.88 641.274C347.88 621.458 351.623 602.496 358.461 585.108C378.05 535.115 423.064 497.875 477.604 489.311V440.671C431.107 446.195 389.466 467.494 358.184 499.098Z" fill="white"/>
</g>
<defs>
<clipPath id="clip0_2001_34">
<rect width="404" height="532" fill="white" transform="translate(310 246)"/>
</clipPath>
</defs>
</svg>
