<svg width="990" height="187" viewBox="0 0 990 187" fill="none" xmlns="http://www.w3.org/2000/svg">
<path d="M55.9399 39.4631C82.7911 39.6665 100.285 56.3468 100.285 91.5381C100.285 126.729 82.7911 143.613 55.9399 143.613C39.8699 143.613 27.4614 137.917 20.1384 124.899V142.393H-2.15271e-07V9.81428e-07H20.1384V58.1775C27.4614 45.1588 39.8699 39.2597 55.9399 39.4631ZM50.6511 127.746C68.7553 127.746 80.3501 115.338 80.3501 91.5381C80.3501 67.7382 68.7553 55.5331 50.6511 55.3297C34.3776 55.1263 20.1384 64.2801 20.1384 91.5381C20.1384 118.796 34.3776 127.746 50.6511 127.746ZM118.984 9.81428e-07V22.5794H139.936V9.81428e-07H118.984ZM139.529 142.393H119.39V40.6836H139.529V142.393ZM259.156 9.81428e-07V142.393H238.814V124.899C231.491 137.917 219.083 143.613 203.013 143.613C176.162 143.613 158.668 126.729 158.668 91.5381C158.668 56.3468 176.162 39.6665 203.013 39.4631C219.083 39.2597 231.491 45.1588 238.814 58.1775V9.81428e-07H259.156ZM208.302 127.746C224.575 127.746 238.814 118.796 238.814 91.5381C238.814 64.2801 224.575 55.1263 208.302 55.3297C190.197 55.5331 178.603 67.7382 178.603 91.5381C178.603 115.338 190.197 127.746 208.302 127.746ZM393.391 39.0563C421.87 39.0563 422.073 65.9074 422.073 85.0287V142.393H401.731V85.0287C401.731 70.1792 398.68 55.9399 385.865 55.9399C375.694 55.9399 360.844 57.7707 360.844 104.353V142.393H340.503V85.0287C340.503 70.1792 337.451 55.9399 324.636 55.9399C314.465 55.9399 299.616 57.7707 299.616 104.353V142.393H279.477V40.6836H299.616V61.8391C306.532 45.9725 317.923 39.0563 332.162 39.0563C351.08 39.0563 357.59 51.0579 359.827 64.4835C366.337 46.7861 378.338 39.0563 393.391 39.0563ZM533.314 40.6836L489.783 156.835C481.036 183.076 473.713 186.127 456.015 186.127H450.523V168.43H456.015C465.576 168.43 467.61 166.396 471.272 156.835L476.357 142.189L438.318 40.6836H460.491L485.714 115.135L511.142 40.6836H533.314ZM605.745 39.0563V56.957C582.352 56.957 570.961 67.1279 570.961 104.353V142.393H550.619V40.6836H570.961V59.398C577.47 45.1588 588.658 39.0563 605.338 39.0563H605.745ZM713.428 91.5381C713.428 126.729 690.238 143.613 663.387 143.613C636.536 143.613 613.346 126.729 613.346 91.5381C613.346 56.3468 636.536 39.2597 663.387 39.4631C690.238 39.6665 713.428 56.3468 713.428 91.5381ZM694.103 91.5381C694.103 66.7211 679.864 56.5502 663.387 56.3468C646.91 56.1434 632.671 66.7211 632.671 91.5381C632.671 116.355 646.91 126.729 663.387 126.729C679.864 126.729 694.103 116.355 694.103 91.5381ZM828.637 91.5381C828.637 126.729 805.448 143.613 778.597 143.613C751.745 143.613 728.556 126.729 728.556 91.5381C728.556 56.3468 751.745 39.2597 778.597 39.4631C805.448 39.6665 828.637 56.3468 828.637 91.5381ZM809.313 91.5381C809.313 66.7211 795.073 56.5502 778.597 56.3468C762.12 56.1434 747.88 66.7211 747.88 91.5381C747.88 116.355 762.12 126.729 778.597 126.729C795.073 126.729 809.313 116.355 809.313 91.5381ZM961.293 39.0563C989.771 39.0563 989.975 65.9074 989.975 85.0287V142.393H969.633V85.0287C969.633 70.1792 966.582 55.9399 953.766 55.9399C943.595 55.9399 928.746 57.7707 928.746 104.353V142.393H908.404V85.0287C908.404 70.1792 905.353 55.9399 892.538 55.9399C882.367 55.9399 867.517 57.7707 867.517 104.353V142.393H847.379V40.6836H867.517V61.8391C874.433 45.9725 885.825 39.0563 900.064 39.0563C918.982 39.0563 925.491 51.0579 927.729 64.4835C934.238 46.7861 946.24 39.0563 961.293 39.0563Z" fill="black"/>
</svg>
